<?xml version="1.0" encoding="UTF-8"?>
<svg id="Livello_1" xmlns="http://www.w3.org/2000/svg" viewBox="0 0 671.48 464.1">
  <defs>
    <style>
      .cls-1 {
        font-family: GreatVibes-Regular, 'Great Vibes';
        font-size: 101.23px;
      }

      .cls-1, .cls-2, .cls-3 {
        fill: #9e783b;
      }

      .cls-4 {
        fill: #fff;
      }

      .cls-3 {
        font-family: RalewayRoman-Regular, Raleway;
        font-size: 27.83px;
        font-variation-settings: 'wght' 400;
      }

      .cls-5 {
        letter-spacing: 0em;
      }

      .cls-6 {
        letter-spacing: -.07em;
      }

      .cls-7 {
        letter-spacing: -.03em;
      }

      .cls-8 {
        letter-spacing: -.03em;
      }

      .cls-9 {
        letter-spacing: 0em;
      }

      .cls-10 {
        letter-spacing: 0em;
      }

      .cls-11 {
        letter-spacing: 0em;
      }

      .cls-12 {
        fill: #ceac6d;
      }
    </style>
  </defs>
  <g>
    <text class="cls-1" transform="translate(60.25 329.11)"><tspan x="0" y="0">La Dolce Vita</tspan></text>
    <text class="cls-3" transform="translate(245.31 382.24)"><tspan x="0" y="0">R</tspan><tspan class="cls-9" x="18.18" y="0">E</tspan><tspan class="cls-10" x="35.02" y="0">S</tspan><tspan class="cls-6" x="51.88" y="0">T</tspan><tspan class="cls-7" x="66.97" y="0">A</tspan><tspan x="84.95" y="0">U</tspan><tspan class="cls-11" x="105.96" y="0">R</tspan><tspan class="cls-5" x="124.06" y="0">AN</tspan><tspan class="cls-8" x="164.36" y="0">T</tspan></text>
  </g>
  <g>
    <g>
      <path class="cls-12" d="M88.96,230.4c-16.43,11.48-32.35,23.64-46.36,37.66-7,6.98-13.6,14.34-19.22,22.29-5.58,7.93-10.41,16.43-12.81,25.35-2.44,8.87-1.5,17.91,2.86,25.64,4.26,7.79,11.47,14.08,19.36,19.26,16.01,10.35,34.78,17,53.7,22.25,18.97,5.36,38.46,9.24,58.07,12.39,19.6,3.34,39.4,5.59,59.22,7.8,39.69,4.11,79.62,6.56,119.66,8.89-40.05,2.28-80.24,2.25-120.38-.27-40.11-2.62-80.29-7.46-119.56-18.14-9.78-2.78-19.49-5.97-29-9.86-9.47-3.94-18.89-8.36-27.56-14.38-8.58-5.99-16.87-13.38-22.07-23.39-2.58-4.95-4.27-10.49-4.67-16.13-.48-5.65.58-11.26,2.07-16.43,3.33-10.32,8.91-19.3,15.32-27.33,6.45-8.03,13.69-15.24,21.32-21.92,15.39-13.22,32.34-24.28,50.05-33.69Z"/>
      <path class="cls-12" d="M549.43,393.97c13.82-3.36,27.59-7,41.19-11.1,6.79-2.08,13.58-4.18,20.2-6.67,6.6-2.46,12.99-5.54,19.22-8.87,6.2-3.35,12.2-7.09,17.64-11.46,5.41-4.37,10.29-9.46,13.47-15.43,3.19-5.95,4.38-12.75,3.02-19.39-1.2-6.64-4.09-12.93-7.48-18.89-6.99-11.89-16.64-22.18-26.88-31.61-10.31-9.43-21.54-17.89-33.26-25.6-23.35-15.6-48.66-28.18-74.65-38.89-52.19-21.04-107.8-33.59-164.08-36.91-28.13-1.77-56.43-1.04-84.58,1.85-14.06,1.51-28.13,3.3-42.09,5.89-13.95,2.57-27.83,5.66-41.64,9.16,53.69-19.02,111.28-28.16,168.74-26.27,28.69,1.08,57.37,4.45,85.47,10.62,14.05,3.05,27.98,6.68,41.73,10.92,13.72,4.34,27.26,9.24,40.55,14.77,26.6,10.98,52.12,24.69,75.81,41.16,11.76,8.35,23.04,17.46,33.39,27.6,10.3,10.16,19.76,21.44,26.65,34.46,3.37,6.53,6.02,13.59,6.87,21.07.4,3.72.35,7.56-.32,11.31-.7,3.74-2.07,7.32-3.91,10.57-3.71,6.53-9.07,11.75-14.81,16.16-5.78,4.4-12.01,8.04-18.41,11.28-6.4,3.21-12.94,6.16-19.74,8.49-6.77,2.32-13.62,4.31-20.51,6.12-13.78,3.62-27.67,6.77-41.61,9.64Z"/>
      <path class="cls-12" d="M552.98,248.73c-15.2-7.42-30.69-14.11-46.64-19.52-7.93-2.81-15.97-5.32-24.05-7.69-8.1-2.28-16.27-4.33-24.45-6.31-16.37-3.97-32.95-7.03-49.58-9.91-16.63-2.87-33.39-4.98-50.32-4.91,16.89-1.1,33.9.4,50.66,2.57,16.83,1.95,33.52,5.03,50.06,8.75,16.53,3.78,32.83,8.69,48.7,14.69,7.92,3.05,15.7,6.45,23.35,10.1,7.62,3.72,15.05,7.81,22.26,12.23Z"/>
      <path class="cls-12" d="M273,164.54c-.5-1.9-.38-3.86-.55-5.85.22-1.93.22-3.98.66-5.91.39-1.94.77-3.94,1.47-5.8.6-1.91,1.25-3.81,2.11-5.62,3.28-7.31,7.87-14.07,13.5-19.9,5.55-5.93,12.27-10.79,19.66-14.55,7.42-3.69,15.77-5.82,24.24-6.12,8.47-.23,16.94,1.52,24.56,4.83,7.59,3.39,14.55,7.95,20.33,13.66,5.87,5.6,10.7,12.17,14.3,19.32,3.45,7.16,5.86,15.1,5.27,22.9-1.89-7.53-5.48-14.16-9.92-20.07-4.37-5.95-9.64-11.16-15.33-15.62-11.41-8.88-25.17-14.33-38.89-13.94-6.87.04-13.73,1.71-20.18,4.55-6.52,2.71-12.53,6.73-18.13,11.31-5.5,4.69-10.57,10.09-14.66,16.22-4.07,6.1-7.57,12.89-8.44,20.59Z"/>
      <path class="cls-12" d="M0,406.92c26.62,10.04,54.06,17.47,81.77,23.39l20.77,4.44,20.94,3.62c13.9,2.67,27.99,4.26,42,6.19,56.19,6.97,112.84,9.23,169.42,8.24l42.43-1.63,10.61-.41,10.58-.94,21.16-1.84,21.17-1.74,10.59-.87,10.53-1.38,42.15-5.49,10.55-1.34c3.52-.42,7.04-.89,10.51-1.58l20.94-3.72,41.95-7.26c27.87-5.39,55.46-12.14,83.41-17.67-13.64,4.01-27.31,7.94-41.03,11.73l-20.57,5.77c-6.88,1.82-13.67,4.09-20.65,5.48l-41.77,9.1-20.92,4.46c-3.48.8-6.99,1.38-10.52,1.91l-10.56,1.67-42.29,6.58-10.58,1.58-10.65,1.08-21.3,2.15-21.32,2.06-10.66,1.01-10.7.48-42.8,1.9c-7.13.43-14.28.11-21.42.1l-21.43-.23c-7.14-.12-14.29-.05-21.42-.34l-21.39-1.31c-14.26-.94-28.53-1.64-42.7-3.51-14.19-1.7-28.43-2.85-42.49-5.49-14.08-2.42-28.24-4.31-42.15-7.62l-20.93-4.53-20.73-5.39-10.33-2.79-10.22-3.2c-6.78-2.21-13.66-4.09-20.34-6.62-13.46-4.68-26.81-9.77-39.59-16.03Z"/>
    </g>
    <g>
      <g>
        <path class="cls-4" d="M560.55,117.65c-21.1,14.49-38.73,39.02-38.03,80.63-109.53-74.13-29.08-190.9-29.08-190.9,10.44,39.17,51.01,56.84,63.64,93.88"/>
        <path class="cls-2" d="M560.55,117.65c-6.2,4.69-11.79,10.11-16.6,16.1-4.79,6.01-8.69,12.67-11.58,19.73-2.87,7.07-4.85,14.46-5.95,21.99-1.12,7.53-1.39,15.16-1.23,22.77l.11,5.04-4.26-2.79c-15.32-10.03-29.29-22.62-39.96-37.9-5.2-7.72-9.58-16.01-12.84-24.77-3.2-8.78-5.2-17.97-6.21-27.22-2.09-18.58.61-37.3,5.72-54.97,5.32-17.7,12.93-34.45,23.22-49.96l3.76-5.67,1.64,6.61c2.21,8.88,6.3,17.27,11.53,24.98,5.19,7.76,11.41,14.92,17.76,22.02,6.32,7.13,12.72,14.32,18.37,22.12,5.67,7.76,10.4,16.33,13.06,25.53-3.49-8.91-8.72-16.94-14.72-24.26-6.01-7.33-12.82-13.97-19.52-20.78-6.67-6.84-13.37-13.81-19.14-21.71-5.74-7.88-10.47-16.76-13.19-26.35l5.4.94c-9.31,14.87-16.54,31.52-21.36,48.5-4.86,17.01-7.07,34.81-5.28,52.25.9,8.7,2.71,17.31,5.65,25.55,3.05,8.19,6.96,16.05,11.72,23.43,9.84,14.55,22.82,26.98,37.35,37.26l-4.15,2.25c.12-15.77,2.64-31.85,9.59-46.15,3.45-7.13,7.9-13.74,13.17-19.55,5.24-5.85,11.36-10.82,17.93-14.97Z"/>
      </g>
      <path class="cls-2" d="M494.18,42.93c4.46,9.86,8.23,20,11.77,30.22,3.57,10.21,6.63,20.59,9.47,31.03,2.77,10.46,5.18,21.02,7.08,31.68,1.9,10.66,3.31,21.41,3.92,32.21-1.18-5.29-1.97-10.62-3.25-15.86-1.02-5.29-2.24-10.53-3.45-15.77-2.55-10.46-5.03-20.92-7.87-31.3-2.74-10.41-5.69-20.76-8.6-31.13l-9.07-31.07Z"/>
      <path class="cls-2" d="M522.53,198.87c-1.05-13.87.26-28.07,4.61-41.59,4.5-13.46,12.59-25.86,23.3-35.45,5.28-4.87,11.24-8.97,17.5-12.42,6.24-3.5,12.8-6.42,19.56-8.71,13.58-4.52,27.5-7.15,42.03-7.55l8.23-.23-5.47,6.33c-8.47,9.81-12.59,22.65-15.62,35.97-1.63,6.65-3.17,13.46-5.25,20.23-2.11,6.76-5.02,13.45-9.09,19.46-1.93,3.08-4.44,5.73-6.87,8.42-2.73,2.38-5.36,4.88-8.39,6.78-5.92,4-12.43,7.07-19.22,9.07-6.8,1.95-13.82,2.92-20.81,2.96-6.98.1-13.94-.7-20.64-2.38,13.66,1.71,27.7.81,40.33-3.98,6.31-2.32,12.26-5.51,17.54-9.56,2.72-1.95,4.99-4.34,7.38-6.57,2.08-2.54,4.25-4.99,5.87-7.85,3.44-5.57,5.85-11.76,7.73-18.19,1.82-6.47,3.16-13.17,4.64-19.95,2.81-13.45,7.18-27.84,16.83-39.23l2.76,6.11c-13.24.27-26.96,2.72-39.77,6.82-6.46,2.01-12.72,4.61-18.67,7.75-5.96,3.13-11.66,6.76-16.81,11.09-10.32,8.6-18.55,19.73-23.68,32.35-2.62,6.29-4.49,12.92-5.79,19.68-1.33,6.77-1.8,13.69-2.23,20.64Z"/>
      <path class="cls-2" d="M598.17,120.02c-3.42,3.13-6.88,6.18-10.2,9.39-3.4,3.11-6.75,6.27-10.03,9.5-6.55,6.46-13.06,12.94-19.27,19.7-6.22,6.75-12.14,13.75-17.82,20.95-2.7,3.69-5.56,7.31-7.97,11.21-2.74,3.72-4.84,7.8-7.31,11.74,3.23-8.7,7.83-16.86,12.97-24.62,5.23-7.71,11.17-14.9,17.41-21.79,6.36-6.78,13.01-13.27,20.08-19.29,7.05-6.02,14.33-11.79,22.13-16.81Z"/>
    </g>
  </g>
</svg>